<?xml version="1.0" encoding="utf-8"?>
<!-- Generator: Adobe Illustrator 27.6.0, SVG Export Plug-In . SVG Version: 6.00 Build 0)  -->
<svg version="1.1" id="Layer_1" xmlns="http://www.w3.org/2000/svg" xmlns:xlink="http://www.w3.org/1999/xlink" x="0px" y="0px"
	 viewBox="0 0 48 48" style="enable-background:new 0 0 48 48;" xml:space="preserve">
<style type="text/css">
	.st0{opacity:0.506;fill:url(#SVGID_1_);enable-background:new    ;}
	.st1{fill:#777777;stroke:#898989;stroke-linecap:round;stroke-linejoin:round;}
	.st2{fill:#FFFFFF;}
	.st3{fill:url(#SVGID_00000138550591288226073380000006997397245900521140_);}
	.st4{opacity:0.739;fill:#FFFFFF;enable-background:new    ;}
	
		.st5{opacity:0.597;fill:none;stroke:url(#SVGID_00000145032504999280120780000010282584250870619313_);stroke-linecap:round;enable-background:new    ;}
	.st6{fill:url(#SVGID_00000021821022065495902360000003218906423587825329_);stroke:#525252;}
	.st7{fill:#999999;stroke:#525252;}
	.st8{opacity:0.2;}
	.st9{fill:#231F20;}
	.st10{fill:#7B8287;}
	.st11{fill:none;stroke:#FF0000;stroke-width:4;}
</style>
<radialGradient id="SVGID_1_" cx="141.8434" cy="2759.947" r="22.873" gradientTransform="matrix(0.918 0 0 0.2641 -106.2122 -687.8468)" gradientUnits="userSpaceOnUse">
	<stop  offset="0" style="stop-color:#000000"/>
	<stop  offset="1" style="stop-color:#000000;stop-opacity:0"/>
</radialGradient>
<path class="st0" d="M45,41c0,3.3-9.4,6-21,6S3,44.4,3,41s9.4-6,21-6S45,37.7,45,41z"/>
<path class="st1" d="M4.6,3.6h38.9c0.6,0,1.1,0.5,1.1,1.1v37.8c0,0.6-0.5,1.1-1.1,1.1H6.6l-3.1-3.1V4.6C3.5,4,4,3.6,4.6,3.6L4.6,3.6
	z"/>
<path class="st2" d="M9,4h30v23H9V4z"/>
<linearGradient id="SVGID_00000176007794731258753410000001790074889043160241_" gradientUnits="userSpaceOnUse" x1="24" y1="46" x2="24" y2="42" gradientTransform="matrix(1 0 0 -1 0 50)">
	<stop  offset="0" style="stop-color:#858585"/>
	<stop  offset="0.5" style="stop-color:#CBCBCB"/>
	<stop  offset="1" style="stop-color:#6B6B6B"/>
</linearGradient>
<rect x="9" y="4" style="fill:url(#SVGID_00000176007794731258753410000001790074889043160241_);" width="30" height="4"/>
<path class="st4" d="M6.1,6h1.7C7.9,6,8,6.1,8,6.1v1.7C8,7.9,7.9,8,7.9,8H6.1L6,7.9L6.1,6L6.1,6z"/>
<linearGradient id="SVGID_00000138564487353570316780000004608585550065693842_" gradientUnits="userSpaceOnUse" x1="35.1263" y1="623.7007" x2="54.4173" y2="680.3997" gradientTransform="matrix(0.9854 0 0 1.1482 -18.5529 -720.9422)">
	<stop  offset="0" style="stop-color:#FFFFFF"/>
	<stop  offset="1" style="stop-color:#FFFFFF;stop-opacity:0"/>
</linearGradient>
<path style="opacity:0.597;fill:none;stroke:url(#SVGID_00000138564487353570316780000004608585550065693842_);stroke-linecap:round;enable-background:new    ;" d="
	M4.6,4.5h38.8c0.1,0,0.1,0.1,0.1,0.1v37.6c0,0.1-0.1,0.1-0.1,0.1H6.9L4.5,40V4.7C4.5,4.6,4.5,4.5,4.6,4.5z"/>
<linearGradient id="SVGID_00000169536662477537576200000005872869208468870537_" gradientUnits="userSpaceOnUse" x1="-65.8502" y1="663.085" x2="-57.4122" y2="683.71" gradientTransform="matrix(1.0677 0 0 1.1215 87.7242 -723.5617)">
	<stop  offset="0" style="stop-color:#858585"/>
	<stop  offset="0.5" style="stop-color:#CBCBCB"/>
	<stop  offset="1" style="stop-color:#6B6B6B"/>
</linearGradient>
<path style="fill:url(#SVGID_00000169536662477537576200000005872869208468870537_);stroke:#525252;" d="M14.1,28.6h19.7
	c0.9,0,1.6,0.8,1.6,1.7v13.2h-23V30.2C12.5,29.3,13.2,28.6,14.1,28.6L14.1,28.6z"/>
<path class="st7" d="M17.2,30.5h3.5c0.4,0,0.8,0.3,0.8,0.8v8.6c0,0.4-0.3,0.8-0.8,0.8h-3.5c-0.4,0-0.8-0.3-0.8-0.8v-8.6
	C16.5,30.8,16.8,30.5,17.2,30.5z"/>
<g class="st8">
	<path class="st9" d="M29,5H19h-3v3v1v1c0,1.7,1.3,3,3,3h10c1.7,0,3-1.3,3-3V9V8V5H29z"/>
</g>
<g>
	<path class="st10" d="M29,3.1H19h-3v3v1v1c0,1.7,1.3,3,3,3h10c1.7,0,3-1.3,3-3v-1v-1v-3C32,3.1,29,3.1,29,3.1z"/>
</g>
<circle class="st2" cx="24" cy="7" r="1.9"/>
<line class="st11" x1="30.3" y1="14.5" x2="17.8" y2="27.1"/>
<line class="st11" x1="17.8" y1="14.5" x2="30.3" y2="27.1"/>
</svg>
