<?xml version="1.0" encoding="utf-8"?>
<!-- Generator: Adobe Illustrator 27.6.0, SVG Export Plug-In . SVG Version: 6.00 Build 0)  -->
<svg version="1.1" id="Layer_1" xmlns="http://www.w3.org/2000/svg" xmlns:xlink="http://www.w3.org/1999/xlink" x="0px" y="0px"
	 viewBox="0 0 48 48" style="enable-background:new 0 0 48 48;" xml:space="preserve">
<style type="text/css">
	.st0{opacity:0.506;fill:url(#SVGID_1_);enable-background:new    ;}
	
		.st1{fill:url(#SVGID_00000146465686212238368260000000865057570409688471_);stroke:#25375F;stroke-linecap:round;stroke-linejoin:round;}
	.st2{fill:#FFFFFF;}
	.st3{fill:url(#SVGID_00000094579904902452569120000007608941580500219522_);}
	.st4{opacity:0.739;fill:#FFFFFF;enable-background:new    ;}
	.st5{opacity:0.131;stroke:#000000;enable-background:new    ;}
	
		.st6{opacity:0.597;fill:none;stroke:url(#SVGID_00000109024888986427683660000001991263674601438861_);stroke-linecap:round;enable-background:new    ;}
	.st7{fill:url(#SVGID_00000075126087879092707280000002754708791945773473_);stroke:#525252;}
	.st8{fill:#4967A2;stroke:#525252;}
	.st9{opacity:0.2;}
	.st10{fill:#231F20;}
	.st11{fill:#7B8287;}
</style>
<radialGradient id="SVGID_1_" cx="83.0652" cy="-991.6133" r="22.8743" gradientTransform="matrix(0.918 0 0 -0.2641 -52.2562 -220.8299)" gradientUnits="userSpaceOnUse">
	<stop  offset="0" style="stop-color:#000000"/>
	<stop  offset="1" style="stop-color:#000000;stop-opacity:0"/>
</radialGradient>
<path class="st0" d="M45,41c0,3.3-9.4,6-21,6S3,44.4,3,41s9.4-6,21-6S45,37.7,45,41z"/>
<linearGradient id="SVGID_00000067236288692646784210000010579459624775223179_" gradientUnits="userSpaceOnUse" x1="56.1919" y1="22.0104" x2="32.1869" y2="94.2684" gradientTransform="matrix(0.9766 0 0 -1.1398 -14.8266 103.9031)">
	<stop  offset="0" style="stop-color:#1E2D69"/>
	<stop  offset="1" style="stop-color:#78A7E0"/>
</linearGradient>
<path style="fill:url(#SVGID_00000067236288692646784210000010579459624775223179_);stroke:#25375F;stroke-linecap:round;stroke-linejoin:round;" d="
	M4.6,3.6h38.9c0.6,0,1.1,0.5,1.1,1.1v37.8c0,0.6-0.5,1.1-1.1,1.1H6.6l-3.1-3.1V4.6C3.5,4,4,3.6,4.6,3.6C4.6,3.6,4.6,3.6,4.6,3.6z"/>
<path class="st2" d="M9,4h30v23H9V4z"/>
<linearGradient id="SVGID_00000062155878069504036050000011292222038764969892_" gradientUnits="userSpaceOnUse" x1="24" y1="4" x2="24" y2="8">
	<stop  offset="0" style="stop-color:#858585"/>
	<stop  offset="0.5" style="stop-color:#CBCBCB"/>
	<stop  offset="1" style="stop-color:#6B6B6B"/>
</linearGradient>
<rect x="9" y="4" style="fill:url(#SVGID_00000062155878069504036050000011292222038764969892_);" width="30" height="4"/>
<path class="st4" d="M6.1,6h1.7C7.9,6,8,6.1,8,6.1v1.7C8,7.9,7.9,8,7.9,8H6.1C6.1,8,6,7.9,6,7.9V6.1C6,6.1,6.1,6,6.1,6z"/>
<path class="st5" d="M11,17.5h26 M11,22.5h26"/>
<linearGradient id="SVGID_00000078747490763227425200000018242198961683800195_" gradientUnits="userSpaceOnUse" x1="25.3689" y1="97.9598" x2="44.6599" y2="41.2608" gradientTransform="matrix(0.9854 0 0 -1.1482 -8.9461 107.6716)">
	<stop  offset="0" style="stop-color:#FFFFFF"/>
	<stop  offset="1" style="stop-color:#FFFFFF;stop-opacity:0"/>
</linearGradient>
<path style="opacity:0.597;fill:none;stroke:url(#SVGID_00000078747490763227425200000018242198961683800195_);stroke-linecap:round;enable-background:new    ;" d="
	M4.6,4.5h38.8c0.1,0,0.1,0.1,0.1,0.1v37.6c0,0.1-0.1,0.1-0.1,0.1H6.9L4.5,40V4.7C4.5,4.6,4.5,4.5,4.6,4.5z"/>
<linearGradient id="SVGID_00000095325871500728962970000004904421317579637692_" gradientUnits="userSpaceOnUse" x1="-24.04" y1="66.0581" x2="-15.602" y2="45.4331" gradientTransform="matrix(1.0677 0 0 -1.1215 43.1776 94.1318)">
	<stop  offset="0" style="stop-color:#858585"/>
	<stop  offset="0.5" style="stop-color:#CBCBCB"/>
	<stop  offset="1" style="stop-color:#6B6B6B"/>
</linearGradient>
<path style="fill:url(#SVGID_00000095325871500728962970000004904421317579637692_);stroke:#525252;" d="M14.1,28.6h19.7
	c0.9,0,1.6,0.8,1.6,1.7v13.2h-23V30.2C12.5,29.3,13.2,28.6,14.1,28.6L14.1,28.6z"/>
<path class="st8" d="M17.2,30.5h3.5c0.4,0,0.8,0.3,0.8,0.8v8.6c0,0.4-0.3,0.8-0.8,0.8h-3.5c-0.4,0-0.8-0.3-0.8-0.8v-8.6
	C16.5,30.8,16.8,30.5,17.2,30.5z"/>
<g class="st9">
	<path class="st10" d="M29,5H19h-3v3v1v1c0,1.7,1.3,3,3,3h10c1.7,0,3-1.3,3-3V9V8V5H29z"/>
</g>
<g>
	<path class="st11" d="M29,3.1H19h-3v3v1v1c0,1.7,1.3,3,3,3h10c1.7,0,3-1.3,3-3v-1v-1v-3H29z"/>
</g>
<circle class="st2" cx="24" cy="7" r="1.9"/>
</svg>
